******* Ingen.Bor.I.Skogen.2010.DVDRiP.m4v.AAC.SWESUB-Zen_Bud ********

Format                           : MPEG-4
Codec ID                         : mp42
File size                        : 995 MiB
Duration                         : 2h 20mn
Overall bit rate                 : 987 Kbps
Writing application              : HandBrake svn3661 2010110801
Xtra                             : WM/MediaClassPrimaryID

Video

Format                           : AVC
Bit rate                         : 817 Kbps
Width                            : 720 pixels
Height                           : 576 pixels
Display aspect ratio             : 16:9
Stream size                      : 823 MiB (83%)
Writing library                  : x264 core 107

Audio

Format                           : AAC
Duration                         : 2h 20mn
Bit rate                         : 160 Kbps
Maximum bit rate                 : 270 Kbps
Channel(s)                       : 2 channels
Channel positions                : Front: L R
Sampling rate                    : 48.0 KHz
Stream size                      : 161 MiB (16%)
Language                         : Swedish


Text #1
Language                         : Swedish

 
http://sv.wikipedia.org/wiki/Ingen_bor_i_skogen

